<svg aria-hidden="true" viewBox="0 0 400 95" class="h-10 w-auto"><path d="m375.53,52.01v9.17h-6.78v-9.31l-13.93-18.27,8.42-.04,9.03,11.99,8.84-11.99,8.38.04-13.96,18.41Zm-26.54,9.25l-2.72-5.5-2.55-5.22-5.75-11.75-5.83,11.75-2.55,5.22-2.61,5.5h-7.71l13.46-27.74h10.2l13.67,27.74h-7.6Zm-34.51-10.46c-.41,1.06-.96,1.87-1.65,2.42-.69.55-1.43.91-2.21,1.08-.79.17-1.88.25-3.29.25h-14.32v6.83h-6.8v-27.44h21.06c1.94,0,3.42.29,4.43.86,1.01.57,1.74,1.2,2.18,1.87.45.68.77,1.43.96,2.27.19.83.31,1.9.35,3.21.04,1.31.04,2.64.01,3.98-.06,2.05-.29,3.61-.7,4.67Zm-5.54-6.67c-.06-1.34-.32-2.34-.79-2.98-.47-.64-1.27-.97-2.41-.97h-12.75v8.18h12.75c1.21,0,2.06-.3,2.55-.91.49-.6.71-1.71.65-3.32Zm-42.45,17.04h-6.78v-9.31l-13.93-18.27,8.42-.04,9.03,11.99,8.84-11.99,8.38.04-13.95,18.41v9.17Zm-27.7.08l-2.72-5.5-2.55-5.22-5.75-11.75-5.83,11.75-2.55,5.22-2.61,5.5h-7.71l13.46-27.74h10.2l13.67,27.74h-7.6Zm-36.52-2.19c-.57.68-1.31,1.24-2.22,1.69-.91.45-2.38.68-4.4.68h-23.91v-27.7h23.78c1.4,0,2.69.24,3.89.72,1.2.48,2.08,1.06,2.67,1.76.58.7,1.1,1.69,1.54,2.96.45,1.28.67,2.36.67,3.24v9.15c0,1.65-.19,3.15-.58,4.48-.39,1.34-.87,2.34-1.44,3.02Zm-5.3-12.9c0-1.33-.04-2.35-.11-3.06-.07-.71-.36-1.4-.87-2.05-.51-.66-1.38-.99-2.6-.99h-14.91v15.09h14.91c.96,0,1.73-.25,2.29-.76.56-.5.92-.93,1.07-1.27.15-.34.23-1.29.23-2.83v-4.13Zm-32.44,11.94c-.57.68-1.15,1.22-1.75,1.62-.6.4-1.29.76-2.06,1.07-.78.31-2.02.46-3.74.46h-15.19c-.98,0-2.06-.21-3.25-.62-1.19-.42-2.29-1.14-3.32-2.17-1.02-1.03-1.54-2.18-1.56-3.45l-.41-4.59v-7.74c0-.99.18-2.09.53-3.27.35-1.19.79-2.14,1.31-2.85.52-.71,1.28-1.36,2.29-1.95,1.01-.59,2.43-.89,4.28-.89h15.25c2.33,0,4.01.33,5.02,1,1.02.66,1.78,1.36,2.3,2.1.52.73.93,1.64,1.24,2.71.31,1.07.46,2.4.46,3.99v7.23c0,1.32-.09,2.7-.28,4.16-.19,1.46-.57,2.53-1.13,3.2Zm-5.39-13.75c0-.79-.12-1.47-.35-2.02-.23-.56-.53-1-.89-1.34-.36-.34-.94-.6-1.74-.81-.8-.2-1.57-.3-2.3-.3h-8.88c-1.01.04-1.81.14-2.4.29-.59.15-1.07.42-1.45.8-.37.38-.65.83-.82,1.37-.17.54-.26,1.18-.26,1.93v6.04c0,1.32.1,2.26.31,2.83.21.57.48.98.82,1.23.34.25.78.43,1.32.53.54.11,1.4.16,2.58.16h8.99c.46,0,1.14-.05,2.04-.15.9-.1,1.49-.26,1.77-.48.28-.22.56-.69.83-1.39.27-.7.41-1.55.41-2.53v-6.16Zm-42.56,16.96h-6.7v-21.35h-10.78v-6.18h28.49v6.18h-11.02v21.35Z" fill="#231815"></path><path class="cls-2" d="m41.32,82.64C18.5,82.64,0,64.14,0,41.32S18.5,0,41.32,0s41.32,18.5,41.32,41.32-18.5,41.32-41.32,41.32ZM10.07,24.68v21.06l21.59-21.06H10.07Zm52.03,0h-30.04v40.76h20.32v-19.82h9.72c5.78,0,10.47-4.69,10.47-10.47s-4.69-10.47-10.47-10.47Z" fill="#2563eb"></path><path class="cls-1" d="m233.72,61.25l-1.47-2.97-1.37-2.81-3.1-6.33-3.15,6.33-1.37,2.81-1.41,2.97h11.87Z" fill="#2563eb"></path><path class="cls-1" d="m343.47,61.25l-1.47-2.97-1.37-2.81-3.1-6.33-3.15,6.33-1.37,2.81-1.41,2.97h11.87Z" fill="#2563eb"></path></svg>